<?xml version="1.0" standalone="no"?>
<!DOCTYPE svg PUBLIC "-//W3C//DTD SVG 20010904//EN"
 "http://www.w3.org/TR/2001/REC-SVG-20010904/DTD/svg10.dtd">
<svg version="1.0" xmlns="http://www.w3.org/2000/svg"
 width="95.000000pt" height="95.000000pt" viewBox="0 0 95.000000 95.000000"
 preserveAspectRatio="xMidYMid meet">
<metadata>
Created by potrace 1.11, written by Peter Selinger 2001-2013
</metadata>
<g transform="translate(0.000000,95.000000) scale(0.100000,-0.100000)"
fill="#000000" stroke="none">
<path d="M30 840 l0 -89 88 -3 87 -3 0 -90 0 -90 -87 -3 -88 -3 0 -84 0 -85
85 0 85 0 0 -95 0 -95 -90 0 -91 0 3 -87 3 -88 90 0 90 0 3 88 3 87 84 0 85 0
0 90 0 89 -82 3 -83 3 -3 88 -3 87 86 0 85 0 0 -85 0 -85 90 0 90 0 0 85 0 85
-85 0 -85 0 0 90 0 89 -87 3 -88 3 -3 93 -3 92 -89 0 -90 0 0 -90z"/>
<path d="M390 840 l0 -90 85 0 84 0 3 -92 3 -93 90 0 90 0 3 87 3 87 -88 3
-88 3 -5 90 -5 90 -87 3 -88 3 0 -91z"/>
<path d="M750 840 l0 -90 90 0 91 0 -3 88 -3 87 -87 3 -88 3 0 -91z"/>
</g>
</svg>
